<svg xmlns="http://www.w3.org/2000/svg" viewBox="0 0 143.64 189" width="143.64" height="189" role="img" aria-label="teamwith.si"><title>teamwith.si</title><path fill="#FFFFFF" fill-rule="evenodd" d="M143.45 56.89L143.21 55.93L142.88 55.01L142.46 54.12L141.95 53.28L141.37 52.49L140.71 51.77L91.87 2.93L91.15 2.27L90.36 1.69L89.52 1.18L88.63 0.76L87.71 0.43L86.75 0.19L85.78 0.05L84.8 0L32 0L27.77 0.3L26.22 0.55L22.11 1.57L17.47 3.49L13.19 6.11L9.95 8.84L8.84 9.95L6.11 13.19L3.87 16.79L3.16 18.19L1.57 22.11L0.55 26.22L0.3 27.77L0 32L0.03 157.78L0.39 162.01L1.35 166.13L1.84 167.63L3.16 170.81L3.87 172.21L6.11 175.81L8.84 179.05L9.95 180.16L13.19 182.89L16.79 185.13L18.19 185.84L22.11 187.43L26.22 188.45L27.77 188.7L32 189L111.64 189L115.87 188.7L117.42 188.45L121.53 187.43L126.17 185.51L130.45 182.89L133.69 180.16L134.8 179.05L137.53 175.81L140.15 171.53L142.07 166.89L143.09 162.78L143.34 161.23L143.64 157L143.64 58.84L143.59 57.86ZM74.99 60.79L75.23 61.74L75.56 62.66L75.98 63.55L76.49 64.39L77.07 65.18L77.73 65.91L78.46 66.57L79.25 67.15L80.09 67.66L80.98 68.08L81.9 68.41L82.85 68.65L83.82 68.79L84.8 68.84L123.64 68.84L123.64 156.61L123.46 158.87L123.02 160.7L122.3 162.43L121.32 164.04L120.1 165.46L118.68 166.68L117.07 167.66L115.34 168.38L113.51 168.82L111.25 169L32.39 169L30.13 168.82L28.3 168.38L26.57 167.66L24.96 166.68L23.54 165.46L22.32 164.04L21.34 162.43L20.62 160.7L20.18 158.87L20 156.61L20 32.39L20.18 30.13L20.62 28.3L21.34 26.57L22.32 24.96L23.54 23.54L24.96 22.32L26.57 21.34L28.3 20.62L30.13 20.18L32.39 20L74.8 20L74.8 58.84L74.85 59.82ZM94.8 34.14L109.5 48.84L94.8 48.84ZM106.86 123.21L107.81 122.97L108.74 122.64L109.63 122.22L110.47 121.71L111.26 121.13L111.98 120.47L112.64 119.74L113.23 118.96L113.73 118.11L114.15 117.23L114.48 116.3L114.72 115.35L114.86 114.38L114.91 113.4L114.86 112.42L114.72 111.45L114.48 110.5L114.15 109.57L113.73 108.69L113.23 107.84L112.64 107.06L111.98 106.33L111.26 105.67L110.47 105.09L109.63 104.58L108.74 104.16L107.81 103.83L106.86 103.59L105.89 103.45L104.91 103.4L38.73 103.4L37.75 103.45L36.78 103.59L35.83 103.83L34.9 104.16L34.01 104.58L33.17 105.09L32.38 105.67L31.66 106.33L31 107.06L30.41 107.84L29.91 108.69L29.49 109.57L29.16 110.5L28.92 111.45L28.78 112.42L28.73 113.4L28.78 114.38L28.92 115.35L29.16 116.3L29.49 117.23L29.91 118.11L30.41 118.96L31 119.74L31.66 120.47L32.38 121.13L33.17 121.71L34.01 122.22L34.9 122.64L35.83 122.97L36.78 123.21L37.75 123.35L38.73 123.4L104.91 123.4L105.89 123.35ZM106.86 157.23L107.81 156.99L108.74 156.66L109.63 156.24L110.47 155.73L111.26 155.15L111.98 154.49L112.64 153.76L113.23 152.98L113.73 152.13L114.15 151.25L114.48 150.32L114.72 149.37L114.86 148.4L114.91 147.42L114.86 146.44L114.72 145.47L114.48 144.52L114.15 143.59L113.73 142.71L113.23 141.86L112.64 141.08L111.98 140.35L111.26 139.69L110.47 139.11L109.63 138.6L108.74 138.18L107.81 137.85L106.86 137.61L105.89 137.47L104.91 137.42L38.73 137.42L37.75 137.47L36.78 137.61L35.83 137.85L34.9 138.18L34.01 138.6L33.17 139.11L32.38 139.69L31.66 140.35L31 141.08L30.41 141.86L29.91 142.71L29.49 143.59L29.16 144.52L28.92 145.47L28.78 146.44L28.73 147.42L28.78 148.4L28.92 149.37L29.16 150.32L29.49 151.25L29.91 152.13L30.41 152.98L31 153.76L31.66 154.49L32.38 155.15L33.17 155.73L34.01 156.24L34.9 156.66L35.83 156.99L36.78 157.23L37.75 157.37L38.73 157.42L104.91 157.42L105.89 157.37Z"/></svg>
